<svg version="1.1" x="0px" y="0px" width="164.96333312988" height="164.99984741211" xmlns="http://www.w3.org/2000/svg" xmlns:xlink="http://www.w3.org/1999/xlink" xmlns:a="http://ns.adobe.com/AdobeSVGViewerExtensions/3.0/" xml:space="preserve"><g transform="translate(0 0)"><g transform="translate(0 0) scale(2.4274129448408 2.4274112137763) rotate(0 33.979248046875 33.986793518066)"><path d="M47.109 21.694l-20.176.05-4.671 8.227 29.691.138z" fill="#007384"></path><path d="M65.692 21.682l-18.583.023 9.157 15.91z" fill="#008a9f"></path><path d="M65.654 21.694c4.241 10.898 2.494 23.034-4.135 32.207l-14.82.02 18.955-32.224v-.003z" fill="#009eb6"></path><path d="M61.519 53.901a33.828 33.828 0 01-10.579 9.543 33.887 33.887 0 01-13.769 4.382c-11.704 1.095-23.502-3.944-30.688-13.858l6.175-.002 34.041-.045 14.82-.02z" fill="#39bbd7"></path><path d="M20.849 46.278l20.176-.049 4.672-8.226-29.691-.14z" fill="#007384"></path><path d="M2.266 46.291l18.583-.022-9.157-15.911z" fill="#008a9f"></path><path d="M2.304 46.278C-1.936 35.38-.19 23.245 6.439 14.071l14.82-.019L2.304 46.275v.003z" fill="#009eb6"></path><path d="M6.439 14.072a33.795 33.795 0 0110.58-9.542A33.85 33.85 0 0130.786.147C42.49-.946 54.289 4.092 61.475 14.005l-6.175.003-34.042.045-14.819.019z" fill="#39bbd7"></path></g></g></svg>